<svg version="1.1" id="Layer_1" xmlns="http://www.w3.org/2000/svg" xmlns:xlink="http://www.w3.org/1999/xlink" x="0px" y="0px"
	 width="100%" viewBox="0 0 500 500" enable-background="new 0 0 500 500" xml:space="preserve">
<path fill="#000000" opacity="1.000000" stroke="none" 
	d="
M316.000000,501.000000 
	C210.666687,501.000000 105.833382,501.000000 1.000056,501.000000 
	C1.000037,334.333405 1.000037,167.666794 1.000019,1.000146 
	C167.666565,1.000097 334.333130,1.000097 500.999756,1.000049 
	C500.999847,167.666519 500.999847,334.333038 500.999939,500.999786 
	C439.500000,501.000000 378.000000,501.000000 316.000000,501.000000 
M317.508179,204.993744 
	C317.098999,204.966629 316.689819,204.939499 316.181274,204.000427 
	C316.181274,201.050339 316.181274,198.100266 316.181274,194.610870 
	C312.530762,194.610870 309.363007,194.610870 305.527039,194.610870 
	C320.192047,180.615479 326.262817,164.417358 322.234619,145.264969 
	C317.396973,122.264206 297.587799,105.664780 275.052643,105.000916 
	C250.713318,104.283913 230.292725,119.317825 223.726929,142.724091 
	C223.105164,144.940643 223.291931,147.548355 219.700836,148.069916 
	C216.437881,148.543808 215.419098,146.692841 213.858887,144.711807 
	C203.770752,131.902496 190.446060,126.123810 174.367645,128.349960 
	C154.029495,131.165863 140.310287,146.588104 138.321777,167.679611 
	C136.658905,185.316895 148.617538,203.088776 166.793762,209.513290 
	C169.822983,210.584000 170.848602,211.848175 169.418304,215.880676 
	C161.487869,214.138275 153.473816,212.377518 144.148666,210.328690 
	C148.390549,219.187225 151.942032,226.603973 155.700516,234.452988 
	C157.266098,233.845581 159.282257,233.706314 159.800552,232.752838 
	C162.258148,228.231598 166.076065,229.566513 170.220093,229.737656 
	C170.220093,247.190125 170.220093,264.430237 170.220093,281.743408 
	C219.098816,281.743408 267.498901,281.743408 316.280640,281.743408 
	C316.280640,269.021484 316.280640,256.555725 316.899078,244.115692 
	C317.306458,244.051254 317.713867,243.986816 319.040344,243.998932 
	C330.670319,243.080902 341.772095,243.884109 351.361298,251.867844 
	C354.923737,254.833847 359.352448,256.759399 363.609253,259.292175 
	C363.609253,235.760773 363.609253,213.034470 363.609253,189.605774 
	C361.052277,191.097275 358.797455,192.116592 356.880829,193.579117 
	C345.401367,202.338654 332.851776,207.344498 317.508179,204.993744 
M386.070160,334.357452 
	C390.493439,338.454651 394.240631,337.628632 395.945770,332.184296 
	C396.662506,329.895844 397.391266,327.611145 398.114563,325.324738 
	C399.045593,327.473907 399.029510,329.303558 399.050171,331.132782 
	C399.070862,332.963562 399.100677,334.795074 399.174561,336.624268 
	C399.452118,343.496918 400.979279,344.511780 407.942322,342.512207 
	C407.942322,340.187408 408.101898,337.857971 407.911499,335.557526 
	C407.403870,329.424316 406.571594,323.313751 406.211334,317.174072 
	C405.987549,313.361298 403.665741,312.462006 400.626129,312.221313 
	C397.576721,311.979797 395.133759,312.718140 394.212860,316.199036 
	C393.258728,319.805756 392.008148,323.334015 390.623016,327.736298 
	C389.113373,323.174957 388.057526,319.504639 386.680847,315.958893 
	C385.281281,312.354309 382.095123,311.936462 378.776337,312.270691 
	C375.289154,312.621918 374.225677,314.815491 374.150696,318.141266 
	C374.015747,324.127472 373.522522,330.105286 373.197113,336.087585 
	C372.797943,343.425323 374.154175,344.473877 382.229919,342.395050 
	C382.229919,337.421112 382.229919,332.260620 382.229919,327.100159 
	C382.638763,327.036377 383.047577,326.972595 383.456421,326.908813 
	C384.264832,329.137848 385.073273,331.366882 386.070160,334.357452 
M182.707779,319.614288 
	C181.164764,319.059540 179.501953,317.820251 178.098984,318.065765 
	C171.163162,319.279572 164.263901,317.877594 157.393234,318.178619 
	C150.848328,318.465363 148.893356,321.253052 148.884033,327.781708 
	C148.879761,330.773834 148.873550,333.765961 148.885742,336.758057 
	C148.913589,343.584137 150.622681,344.704132 157.500854,342.324799 
	C157.500854,337.538391 157.339645,332.709503 157.621231,327.906616 
	C157.686584,326.791870 159.261475,325.765564 160.141769,324.698547 
	C161.136124,325.752228 162.806427,326.701233 162.989166,327.880646 
	C163.416763,330.640747 163.126465,333.511383 163.134933,336.337250 
	C163.156403,343.494873 164.929077,344.721130 171.927917,342.295502 
	C171.927917,337.689117 171.740662,333.025940 172.048706,328.395721 
	C172.134613,327.104553 173.684387,325.910736 174.562607,324.672241 
	C175.590591,325.889557 177.256027,326.988220 177.509460,328.349701 
	C177.988098,330.920990 177.650009,333.643494 177.659515,336.303101 
	C177.685120,343.475647 178.760208,344.301300 186.182846,342.633423 
	C186.182846,337.544678 186.475906,332.376923 186.055618,327.267853 
	C185.854156,324.818787 184.302704,322.480774 182.707779,319.614288 
M217.954300,317.682770 
	C212.705902,312.071472 201.171341,309.545105 194.598724,312.905701 
	C193.378601,313.529572 192.291534,315.643250 192.238159,317.109253 
	C191.990662,323.905273 191.885086,330.729980 192.290543,337.510803 
	C192.400040,339.341949 194.085083,341.949341 195.720093,342.667206 
	C202.575836,345.677185 212.822708,343.569000 217.057480,338.827667 
	C221.596741,333.745422 222.095322,325.901855 217.954300,317.682770 
M355.960663,343.805725 
	C356.443909,343.682983 356.934723,343.584137 357.409332,343.434021 
	C366.159851,340.666260 370.526367,333.104095 368.650299,323.976990 
	C366.919891,315.558289 359.767059,310.594421 350.868896,311.637085 
	C341.925415,312.685059 336.715393,319.065308 337.006531,328.613098 
	C337.310028,338.568726 343.836456,344.076050 355.960663,343.805725 
M114.366257,331.283264 
	C115.889702,325.680817 115.507301,325.119293 110.114838,325.089966 
	C107.868149,325.077759 105.621353,325.087952 103.545036,325.087952 
	C103.545036,322.961426 103.545036,321.545319 103.545036,319.693787 
	C106.952576,319.693787 110.178482,320.138550 113.175949,319.504089 
	C114.650368,319.191956 115.701836,316.881683 116.944702,315.475647 
	C115.629364,314.424347 114.389854,312.605377 112.984398,312.466614 
	C108.869598,312.060211 104.687622,312.382568 100.533989,312.307617 
	C96.070564,312.227081 94.260414,314.456909 94.338501,318.772797 
	C94.440712,324.421722 94.351776,330.073975 94.363800,335.724731 
	C94.380043,343.353882 95.778961,344.400513 103.600082,342.295715 
	C103.600082,339.122040 103.600082,335.849670 103.600082,332.466278 
	C107.238022,332.227173 110.515205,332.011780 114.366257,331.283264 
M308.954895,333.321655 
	C312.463440,342.096710 321.546661,346.376434 329.920074,343.199829 
	C334.213013,341.571228 334.795959,339.485260 332.063049,335.231689 
	C331.637146,335.332397 331.149811,335.378418 330.719757,335.560059 
	C326.566162,337.314514 322.410858,337.637665 319.370544,333.821228 
	C316.528625,330.253845 316.584198,325.891449 318.888855,322.113159 
	C321.564514,317.726593 325.729279,318.328522 329.950104,319.827881 
	C330.785980,320.124786 332.456818,319.879120 332.817078,319.303925 
	C333.432678,318.321106 333.923004,316.364502 333.386932,315.733368 
	C332.085114,314.200745 330.327759,312.564148 328.464691,312.078094 
	C315.496063,308.694916 306.073883,318.588379 308.954895,333.321655 
M245.142761,335.943726 
	C240.906616,337.278870 236.680649,338.539642 232.406250,334.303192 
	C236.950317,333.553619 240.711685,332.895020 244.485931,332.320953 
	C248.481339,331.713226 249.254852,329.352997 248.280869,325.822388 
	C246.792618,320.427612 242.097900,317.468811 235.490738,317.874023 
	C229.260605,318.256104 224.736862,322.353333 224.105774,328.385803 
	C223.574539,333.463593 224.618790,338.118011 229.080338,341.193115 
	C233.977142,344.568268 239.446747,344.853851 244.797363,342.625610 
	C247.953735,341.311127 248.873810,338.803986 245.142761,335.943726 
M251.933472,338.005554 
	C251.389221,341.579681 252.661697,343.277802 256.531464,343.066864 
	C260.841827,342.832001 265.204163,343.287476 269.479462,342.834351 
	C270.760529,342.698608 271.825745,340.526031 272.989868,339.286591 
	C271.827423,338.274506 270.805115,336.728424 269.469116,336.377899 
	C267.559113,335.876770 265.419617,336.250305 262.654968,336.250305 
	C265.972382,332.101898 268.841187,328.892273 271.263580,325.375183 
	C273.528503,322.086731 272.416077,318.757935 269.132019,318.578491 
	C264.491516,318.324860 259.805573,318.305145 255.184601,318.708008 
	C254.020462,318.809479 252.381424,320.803192 252.190033,322.107697 
	C252.065262,322.958221 254.005402,324.652527 255.297836,325.037231 
	C257.026855,325.551941 259.024384,325.164612 261.641296,325.164612 
	C258.047577,329.725433 255.093033,333.475098 251.933472,338.005554 
M143.741745,337.240936 
	C143.741699,330.603363 143.747910,323.965759 143.739944,317.328186 
	C143.730896,309.783966 142.859039,309.062897 134.981308,310.351135 
	C134.981308,318.901581 134.977783,327.507172 134.982391,336.112732 
	C134.986374,343.553619 136.165955,344.448669 143.741669,342.543915 
	C143.741669,341.125183 143.741669,339.646362 143.741745,337.240936 
M129.402512,325.003784 
	C129.168198,318.288177 127.811981,317.349396 120.832695,319.318420 
	C120.832695,325.056152 120.818542,330.867218 120.836365,336.678253 
	C120.857437,343.551605 122.480034,344.632172 129.403503,342.345276 
	C129.403503,336.885559 129.403503,331.398041 129.402512,325.003784 
M286.567688,335.825256 
	C284.836792,339.352936 285.121521,342.542236 289.266327,343.616028 
	C290.821991,344.019043 293.755585,342.787231 294.551056,341.421387 
	C295.373596,340.009064 295.009277,336.303131 294.015228,335.778870 
	C292.123871,334.781342 289.414215,335.335266 286.567688,335.825256 
M124.667496,307.101501 
	C121.635628,307.743286 119.552528,309.654022 120.675186,312.623688 
	C121.277710,314.217529 123.853516,315.772156 125.677086,315.953278 
	C126.927757,316.077484 129.226456,314.028839 129.629974,312.559631 
	C130.470444,309.499512 128.502335,307.655701 124.667496,307.101501 
z"/>
<path fill="#FEF9F4" opacity="1.000000" stroke="none" 
	d="
M316.280640,244.089951 
	C316.280640,256.555725 316.280640,269.021484 316.280640,281.743408 
	C267.498901,281.743408 219.098816,281.743408 170.220093,281.743408 
	C170.220093,264.430237 170.220093,247.190125 170.220093,229.737656 
	C166.076065,229.566513 162.258148,228.231598 159.800552,232.752838 
	C159.282257,233.706314 157.266098,233.845581 155.700516,234.452988 
	C151.942032,226.603973 148.390549,219.187225 144.148666,210.328690 
	C153.473816,212.377518 161.487869,214.138275 169.418304,215.880676 
	C170.848602,211.848175 169.822983,210.584000 166.793762,209.513290 
	C148.617538,203.088776 136.658905,185.316895 138.321777,167.679611 
	C140.310287,146.588104 154.029495,131.165863 174.367645,128.349960 
	C190.446060,126.123810 203.770752,131.902496 213.858887,144.711807 
	C215.419098,146.692841 216.437881,148.543808 219.700836,148.069916 
	C223.291931,147.548355 223.105164,144.940643 223.726929,142.724091 
	C230.292725,119.317825 250.713318,104.283913 275.052643,105.000916 
	C297.587799,105.664780 317.396973,122.264206 322.234619,145.264969 
	C326.262817,164.417358 320.192047,180.615479 305.527039,194.610870 
	C309.363007,194.610870 312.530762,194.610870 316.181274,194.610870 
	C316.181274,198.100266 316.181274,201.050339 316.108826,204.916748 
	C316.117767,218.585358 316.199188,231.337646 316.280640,244.089951 
M290.625031,172.112534 
	C299.568115,161.674622 299.979767,147.632874 291.624298,138.028076 
	C283.137543,128.272369 269.378998,126.024048 258.677124,132.644119 
	C245.900101,140.547852 242.466553,157.534958 251.211548,169.579041 
	C260.438202,182.286484 277.738983,183.646179 290.625031,172.112534 
M163.882217,155.458649 
	C158.406464,163.220337 158.071579,171.351120 163.100357,179.255295 
	C167.560715,186.266068 174.408112,189.502029 182.735504,188.495453 
	C191.915558,187.385788 197.845001,182.049377 200.412964,173.200256 
	C202.970963,164.385452 198.878098,154.677017 190.883057,150.049042 
	C181.949722,144.877975 172.506287,146.589371 163.882217,155.458649 
M217.944824,194.865356 
	C225.024796,194.865356 232.104752,194.865356 239.607300,194.865356 
	C236.227264,190.702316 233.166656,187.070816 230.266495,183.315445 
	C228.088089,180.494659 221.602966,180.656311 219.929291,183.784744 
	C218.368668,186.701874 216.921600,189.689743 215.650497,192.740616 
	C215.468628,193.177109 216.558380,194.143417 217.944824,194.865356 
M297.144501,270.069672 
	C298.945374,271.168793 300.645752,272.743347 302.592010,273.154724 
	C303.486328,273.343781 305.936798,271.083496 305.803009,270.227631 
	C305.500336,268.291901 304.433441,265.491425 302.953888,264.921814 
	C299.505951,263.594299 297.305573,265.556488 297.144501,270.069672 
z"/>
<path fill="#FCF7F2" opacity="1.000000" stroke="none" 
	d="
M318.121002,205.077774 
	C332.851776,207.344498 345.401367,202.338654 356.880829,193.579117 
	C358.797455,192.116592 361.052277,191.097275 363.609253,189.605774 
	C363.609253,213.034470 363.609253,235.760773 363.609253,259.292175 
	C359.352448,256.759399 354.923737,254.833847 351.361298,251.867844 
	C341.772095,243.884109 330.670319,243.080902 318.524109,243.500031 
	C318.045563,230.360001 318.083282,217.718887 318.121002,205.077774 
z"/>
<path fill="#F5F1EC" opacity="1.000000" stroke="none" 
	d="
M385.975922,333.976685 
	C385.073273,331.366882 384.264832,329.137848 383.456421,326.908813 
	C383.047577,326.972595 382.638763,327.036377 382.229919,327.100159 
	C382.229919,332.260620 382.229919,337.421112 382.229919,342.395050 
	C374.154175,344.473877 372.797943,343.425323 373.197113,336.087585 
	C373.522522,330.105286 374.015747,324.127472 374.150696,318.141266 
	C374.225677,314.815491 375.289154,312.621918 378.776337,312.270691 
	C382.095123,311.936462 385.281281,312.354309 386.680847,315.958893 
	C388.057526,319.504639 389.113373,323.174957 390.623016,327.736298 
	C392.008148,323.334015 393.258728,319.805756 394.212860,316.199036 
	C395.133759,312.718140 397.576721,311.979797 400.626129,312.221313 
	C403.665741,312.462006 405.987549,313.361298 406.211334,317.174072 
	C406.571594,323.313751 407.403870,329.424316 407.911499,335.557526 
	C408.101898,337.857971 407.942322,340.187408 407.942322,342.512207 
	C400.979279,344.511780 399.452118,343.496918 399.174561,336.624268 
	C399.100677,334.795074 399.070862,332.963562 399.050171,331.132782 
	C399.029510,329.303558 399.045593,327.473907 398.114563,325.324738 
	C397.391266,327.611145 396.662506,329.895844 395.945770,332.184296 
	C394.240631,337.628632 390.493439,338.454651 385.975922,333.976685 
z"/>
<path fill="#F9F4EF" opacity="1.000000" stroke="none" 
	d="
M183.035217,319.853394 
	C184.302704,322.480774 185.854156,324.818787 186.055618,327.267853 
	C186.475906,332.376923 186.182846,337.544678 186.182846,342.633423 
	C178.760208,344.301300 177.685120,343.475647 177.659515,336.303101 
	C177.650009,333.643494 177.988098,330.920990 177.509460,328.349701 
	C177.256027,326.988220 175.590591,325.889557 174.562622,324.672241 
	C173.684387,325.910736 172.134613,327.104553 172.048706,328.395721 
	C171.740662,333.025940 171.927917,337.689117 171.927917,342.295502 
	C164.929077,344.721130 163.156403,343.494873 163.134933,336.337250 
	C163.126465,333.511383 163.416763,330.640747 162.989166,327.880646 
	C162.806427,326.701233 161.136124,325.752228 160.141785,324.698547 
	C159.261475,325.765564 157.686584,326.791870 157.621231,327.906616 
	C157.339645,332.709503 157.500854,337.538391 157.500854,342.324799 
	C150.622681,344.704132 148.913589,343.584137 148.885742,336.758057 
	C148.873550,333.765961 148.879761,330.773834 148.884033,327.781708 
	C148.893356,321.253052 150.848328,318.465363 157.393234,318.178619 
	C164.263901,317.877594 171.163162,319.279572 178.098984,318.065765 
	C179.501953,317.820251 181.164764,319.059540 183.035217,319.853394 
z"/>
<path fill="#F7F2ED" opacity="1.000000" stroke="none" 
	d="
M218.157761,318.000427 
	C222.095322,325.901855 221.596741,333.745422 217.057480,338.827667 
	C212.822708,343.569000 202.575836,345.677185 195.720093,342.667206 
	C194.085083,341.949341 192.400040,339.341949 192.290543,337.510803 
	C191.885086,330.729980 191.990662,323.905273 192.238159,317.109253 
	C192.291534,315.643250 193.378601,313.529572 194.598724,312.905701 
	C201.171341,309.545105 212.705902,312.071472 218.157761,318.000427 
M209.245361,334.752380 
	C212.451981,330.590088 212.815659,325.850922 209.812576,321.895905 
	C208.235214,319.818512 204.554123,319.338562 201.303711,317.908813 
	C201.303711,325.062927 201.303711,330.627197 201.303711,337.074158 
	C204.054153,336.382050 206.343842,335.805908 209.245361,334.752380 
z"/>
<path fill="#F8F3EE" opacity="1.000000" stroke="none" 
	d="
M355.538025,343.850006 
	C343.836456,344.076050 337.310028,338.568726 337.006531,328.613098 
	C336.715393,319.065308 341.925415,312.685059 350.868896,311.637085 
	C359.767059,310.594421 366.919891,315.558289 368.650299,323.976990 
	C370.526367,333.104095 366.159851,340.666260 357.409332,343.434021 
	C356.934723,343.584137 356.443909,343.682983 355.538025,343.850006 
M350.985504,319.000366 
	C345.975037,322.131195 344.394775,329.370361 347.698914,334.056152 
	C349.814026,337.055725 354.216095,337.853668 356.908600,335.369934 
	C360.366119,332.180420 360.259460,328.019379 359.210205,323.817505 
	C358.244263,319.949219 355.641205,318.450684 350.985504,319.000366 
z"/>
<path fill="#F0EBE6" opacity="1.000000" stroke="none" 
	d="
M114.079315,331.539795 
	C110.515205,332.011780 107.238022,332.227173 103.600082,332.466278 
	C103.600082,335.849670 103.600082,339.122040 103.600082,342.295715 
	C95.778961,344.400513 94.380043,343.353882 94.363800,335.724731 
	C94.351776,330.073975 94.440712,324.421722 94.338501,318.772797 
	C94.260414,314.456909 96.070564,312.227081 100.533989,312.307617 
	C104.687622,312.382568 108.869598,312.060211 112.984398,312.466614 
	C114.389854,312.605377 115.629364,314.424347 116.944702,315.475647 
	C115.701836,316.881683 114.650368,319.191956 113.175949,319.504089 
	C110.178482,320.138550 106.952576,319.693787 103.545036,319.693787 
	C103.545036,321.545319 103.545036,322.961426 103.545036,325.087952 
	C105.621353,325.087952 107.868149,325.077759 110.114838,325.089966 
	C115.507301,325.119293 115.889702,325.680817 114.079315,331.539795 
z"/>
<path fill="#F4EFEB" opacity="1.000000" stroke="none" 
	d="
M308.870087,332.925964 
	C306.073883,318.588379 315.496063,308.694916 328.464691,312.078094 
	C330.327759,312.564148 332.085114,314.200745 333.386932,315.733368 
	C333.923004,316.364502 333.432678,318.321106 332.817078,319.303925 
	C332.456818,319.879120 330.785980,320.124786 329.950104,319.827881 
	C325.729279,318.328522 321.564514,317.726593 318.888855,322.113159 
	C316.584198,325.891449 316.528625,330.253845 319.370544,333.821228 
	C322.410858,337.637665 326.566162,337.314514 330.719757,335.560059 
	C331.149811,335.378418 331.637146,335.332397 332.063049,335.231689 
	C334.795959,339.485260 334.213013,341.571228 329.920074,343.199829 
	C321.546661,346.376434 312.463440,342.096710 308.870087,332.925964 
z"/>
<path fill="#F4EFEB" opacity="1.000000" stroke="none" 
	d="
M245.538330,335.988159 
	C248.873810,338.803986 247.953735,341.311127 244.797363,342.625610 
	C239.446747,344.853851 233.977142,344.568268 229.080338,341.193115 
	C224.618790,338.118011 223.574539,333.463593 224.105774,328.385803 
	C224.736862,322.353333 229.260605,318.256104 235.490738,317.874023 
	C242.097900,317.468811 246.792618,320.427612 248.280869,325.822388 
	C249.254852,329.352997 248.481339,331.713226 244.485931,332.320953 
	C240.711685,332.895020 236.950317,333.553619 232.406250,334.303192 
	C236.680649,338.539642 240.906616,337.278870 245.538330,335.988159 
M240.116165,326.611084 
	C236.970825,322.642181 234.558990,323.002533 232.067780,328.317139 
	C234.756409,327.887329 237.118149,327.509766 240.116165,326.611084 
z"/>
<path fill="#F8F3EE" opacity="1.000000" stroke="none" 
	d="
M252.035980,337.615173 
	C255.093033,333.475098 258.047577,329.725433 261.641296,325.164612 
	C259.024384,325.164612 257.026855,325.551941 255.297836,325.037231 
	C254.005402,324.652527 252.065262,322.958221 252.190033,322.107697 
	C252.381424,320.803192 254.020462,318.809479 255.184601,318.708008 
	C259.805573,318.305145 264.491516,318.324860 269.132019,318.578491 
	C272.416077,318.757935 273.528503,322.086731 271.263580,325.375183 
	C268.841187,328.892273 265.972382,332.101898 262.654968,336.250305 
	C265.419617,336.250305 267.559113,335.876770 269.469116,336.377899 
	C270.805115,336.728424 271.827423,338.274506 272.989868,339.286591 
	C271.825745,340.526031 270.760529,342.698608 269.479462,342.834351 
	C265.204163,343.287476 260.841827,342.832001 256.531464,343.066864 
	C252.661697,343.277802 251.389221,341.579681 252.035980,337.615173 
z"/>
<path fill="#F4EFEB" opacity="1.000000" stroke="none" 
	d="
M143.741699,337.704224 
	C143.741669,339.646362 143.741669,341.125183 143.741669,342.543915 
	C136.165955,344.448669 134.986374,343.553619 134.982391,336.112732 
	C134.977783,327.507172 134.981308,318.901581 134.981308,310.351135 
	C142.859039,309.062897 143.730896,309.783966 143.739944,317.328186 
	C143.747910,323.965759 143.741699,330.603363 143.741699,337.704224 
z"/>
<path fill="#FCF7F2" opacity="1.000000" stroke="none" 
	d="
M129.403015,325.457153 
	C129.403503,331.398041 129.403503,336.885559 129.403503,342.345276 
	C122.480034,344.632172 120.857437,343.551605 120.836365,336.678253 
	C120.818542,330.867218 120.832695,325.056152 120.832695,319.318420 
	C127.811981,317.349396 129.168198,318.288177 129.403015,325.457153 
z"/>
<path fill="#F4EFEB" opacity="1.000000" stroke="none" 
	d="
M286.806030,335.535095 
	C289.414215,335.335266 292.123871,334.781342 294.015228,335.778870 
	C295.009277,336.303131 295.373596,340.009064 294.551056,341.421387 
	C293.755585,342.787231 290.821991,344.019043 289.266327,343.616028 
	C285.121521,342.542236 284.836792,339.352936 286.806030,335.535095 
z"/>
<path fill="#403F3E" opacity="1.000000" stroke="none" 
	d="
M317.814575,205.035767 
	C318.083282,217.718887 318.045563,230.360001 318.064545,243.461746 
	C317.713867,243.986816 317.306458,244.051254 316.589844,244.102814 
	C316.199188,231.337646 316.117767,218.585358 316.158508,205.372711 
	C316.689819,204.939499 317.098999,204.966629 317.814575,205.035767 
z"/>
<path fill="#EDE8E4" opacity="1.000000" stroke="none" 
	d="
M125.050415,307.100677 
	C128.502335,307.655701 130.470444,309.499512 129.629974,312.559631 
	C129.226456,314.028839 126.927757,316.077484 125.677086,315.953278 
	C123.853516,315.772156 121.277710,314.217529 120.675186,312.623688 
	C119.552528,309.654022 121.635628,307.743286 125.050415,307.100677 
z"/>
<path fill="#060605" opacity="1.000000" stroke="none" 
	d="
M290.377502,172.375122 
	C277.738983,183.646179 260.438202,182.286484 251.211548,169.579041 
	C242.466553,157.534958 245.900101,140.547852 258.677124,132.644119 
	C269.378998,126.024048 283.137543,128.272369 291.624298,138.028076 
	C299.979767,147.632874 299.568115,161.674622 290.377502,172.375122 
M269.590454,166.220200 
	C268.283203,164.642395 267.197571,162.698334 265.541870,161.696442 
	C265.002747,161.370209 262.186920,163.295151 261.850952,164.569672 
	C261.515442,165.842285 263.043060,168.912659 263.646423,168.884583 
	C265.563934,168.795380 267.431335,167.629166 269.590454,166.220200 
M269.519623,144.827423 
	C270.902893,143.245346 272.639557,141.818390 273.445312,139.982819 
	C273.674835,139.459961 271.287476,136.962189 269.938446,136.810776 
	C268.654083,136.666611 265.876617,138.647766 265.994781,139.267822 
	C266.358124,141.174606 267.794128,142.876999 269.519623,144.827423 
M282.426636,144.175552 
	C279.473389,144.841309 277.468781,146.494461 278.722504,149.620209 
	C279.231598,150.889557 281.300018,152.159729 282.723022,152.236237 
	C283.842712,152.296432 286.175323,150.266983 286.024536,149.616470 
	C285.587585,147.731110 284.170776,146.072861 282.426636,144.175552 
M284.845215,164.174942 
	C284.311646,159.569550 281.434082,157.331253 278.839264,159.738052 
	C277.692017,160.802139 276.983368,163.950912 277.718658,165.119537 
	C279.641022,168.174866 282.314880,167.702652 284.845215,164.174942 
M255.720566,151.422302 
	C257.151306,152.883942 258.391571,154.732346 260.122345,155.584641 
	C260.682098,155.860275 263.321198,153.664413 263.560760,152.337585 
	C263.791870,151.057571 262.038574,148.155365 261.360077,148.216568 
	C259.470245,148.387024 257.685760,149.725601 255.720566,151.422302 
z"/>
<path fill="#060606" opacity="1.000000" stroke="none" 
	d="
M164.093536,155.162170 
	C172.506287,146.589371 181.949722,144.877975 190.883057,150.049042 
	C198.878098,154.677017 202.970963,164.385452 200.412964,173.200256 
	C197.845001,182.049377 191.915558,187.385788 182.735504,188.495453 
	C174.408112,189.502029 167.560715,186.266068 163.100357,179.255295 
	C158.071579,171.351120 158.406464,163.220337 164.093536,155.162170 
M189.652969,177.373825 
	C189.680695,175.667328 189.926865,173.912384 189.567459,172.291748 
	C189.487442,171.930954 186.917358,171.527054 186.138458,172.069214 
	C185.192657,172.727539 184.225693,175.218384 184.491501,175.438431 
	C185.779800,176.505096 187.478302,177.076309 189.652969,177.373825 
M179.212936,159.933060 
	C179.918930,158.397141 180.909302,156.905563 181.159821,155.298645 
	C181.236252,154.808426 179.133926,153.322968 178.284851,153.502335 
	C177.101089,153.752426 175.130234,155.622345 175.287247,155.955780 
	C176.000153,157.469925 177.341736,158.688080 179.212936,159.933060 
M168.453339,163.021240 
	C168.416443,164.721924 168.129807,166.481918 168.510178,168.083527 
	C168.611069,168.508316 171.165863,168.994843 171.874619,168.474075 
	C172.847641,167.759109 173.871857,165.254089 173.589340,165.011337 
	C172.353195,163.949188 170.653107,163.426956 168.453339,163.021240 
M191.498718,164.896423 
	C191.168381,163.329071 191.189331,161.513702 190.340973,160.312073 
	C189.983856,159.806229 187.488159,160.200317 186.534195,160.929977 
	C185.843781,161.458054 185.670364,164.116257 185.993378,164.267044 
	C187.508392,164.974167 189.275085,165.142166 191.498718,164.896423 
M178.153564,175.627304 
	C176.512634,175.161484 174.882889,174.490814 173.221436,174.399963 
	C172.882721,174.381439 171.915314,176.672653 172.167633,177.661987 
	C172.411407,178.617813 174.366058,180.102600 174.684677,179.907837 
	C176.107315,179.038345 177.213486,177.651031 178.153564,175.627304 
z"/>
<path fill="#0D0D0C" opacity="1.000000" stroke="none" 
	d="
M217.502228,194.864944 
	C216.558380,194.143417 215.468628,193.177109 215.650497,192.740616 
	C216.921600,189.689743 218.368668,186.701874 219.929291,183.784744 
	C221.602966,180.656311 228.088089,180.494659 230.266495,183.315445 
	C233.166656,187.070816 236.227264,190.702316 239.607300,194.865356 
	C232.104752,194.865356 225.024796,194.865356 217.502228,194.864944 
z"/>
<path fill="#0F0F0F" opacity="1.000000" stroke="none" 
	d="
M297.080811,269.701477 
	C297.305573,265.556488 299.505951,263.594299 302.953888,264.921814 
	C304.433441,265.491425 305.500336,268.291901 305.803009,270.227631 
	C305.936798,271.083496 303.486328,273.343781 302.592010,273.154724 
	C300.645752,272.743347 298.945374,271.168793 297.080811,269.701477 
z"/>
<path fill="#0A0909" opacity="1.000000" stroke="none" 
	d="
M208.939438,334.991089 
	C206.343842,335.805908 204.054153,336.382050 201.303711,337.074158 
	C201.303711,330.627197 201.303711,325.062927 201.303711,317.908813 
	C204.554123,319.338562 208.235214,319.818512 209.812576,321.895905 
	C212.815659,325.850922 212.451981,330.590088 208.939438,334.991089 
z"/>
<path fill="#0A0A0A" opacity="1.000000" stroke="none" 
	d="
M351.385895,318.939941 
	C355.641205,318.450684 358.244263,319.949219 359.210205,323.817505 
	C360.259460,328.019379 360.366119,332.180420 356.908600,335.369934 
	C354.216095,337.853668 349.814026,337.055725 347.698914,334.056152 
	C344.394775,329.370361 345.975037,322.131195 351.385895,318.939941 
z"/>
<path fill="#242322" opacity="1.000000" stroke="none" 
	d="
M239.798019,326.871643 
	C237.118149,327.509766 234.756409,327.887329 232.067780,328.317139 
	C234.558990,323.002533 236.970825,322.642181 239.798019,326.871643 
z"/>
<path fill="#EAE6E1" opacity="1.000000" stroke="none" 
	d="
M269.454285,166.549683 
	C267.431335,167.629166 265.563934,168.795380 263.646423,168.884583 
	C263.043060,168.912659 261.515442,165.842285 261.850952,164.569672 
	C262.186920,163.295151 265.002747,161.370209 265.541870,161.696442 
	C267.197571,162.698334 268.283203,164.642395 269.454285,166.549683 
z"/>
<path fill="#EDE8E4" opacity="1.000000" stroke="none" 
	d="
M269.166443,144.743134 
	C267.794128,142.876999 266.358124,141.174606 265.994781,139.267822 
	C265.876617,138.647766 268.654083,136.666611 269.938446,136.810776 
	C271.287476,136.962189 273.674835,139.459961 273.445312,139.982819 
	C272.639557,141.818390 270.902893,143.245346 269.166443,144.743134 
z"/>
<path fill="#EAE6E1" opacity="1.000000" stroke="none" 
	d="
M282.782562,144.250519 
	C284.170776,146.072861 285.587585,147.731110 286.024536,149.616470 
	C286.175323,150.266983 283.842712,152.296432 282.723022,152.236237 
	C281.300018,152.159729 279.231598,150.889557 278.722504,149.620209 
	C277.468781,146.494461 279.473389,144.841309 282.782562,144.250519 
z"/>
<path fill="#F7F2ED" opacity="1.000000" stroke="none" 
	d="
M284.669067,164.523651 
	C282.314880,167.702652 279.641022,168.174866 277.718658,165.119537 
	C276.983368,163.950912 277.692017,160.802139 278.839264,159.738052 
	C281.434082,157.331253 284.311646,159.569550 284.669067,164.523651 
z"/>
<path fill="#F0EBE6" opacity="1.000000" stroke="none" 
	d="
M255.790131,151.012604 
	C257.685760,149.725601 259.470245,148.387024 261.360077,148.216568 
	C262.038574,148.155365 263.791870,151.057571 263.560760,152.337585 
	C263.321198,153.664413 260.682098,155.860275 260.122345,155.584641 
	C258.391571,154.732346 257.151306,152.883942 255.790131,151.012604 
z"/>
<path fill="#EAE6E1" opacity="1.000000" stroke="none" 
	d="
M189.342209,177.598450 
	C187.478302,177.076309 185.779800,176.505096 184.491501,175.438431 
	C184.225693,175.218384 185.192657,172.727539 186.138458,172.069214 
	C186.917358,171.527054 189.487442,171.930954 189.567459,172.291748 
	C189.926865,173.912384 189.680695,175.667328 189.342209,177.598450 
z"/>
<path fill="#EAE6E1" opacity="1.000000" stroke="none" 
	d="
M178.835022,159.972900 
	C177.341736,158.688080 176.000153,157.469925 175.287247,155.955780 
	C175.130234,155.622345 177.101089,153.752426 178.284851,153.502335 
	C179.133926,153.322968 181.236252,154.808426 181.159821,155.298645 
	C180.909302,156.905563 179.918930,158.397141 178.835022,159.972900 
z"/>
<path fill="#EAE6E1" opacity="1.000000" stroke="none" 
	d="
M168.787354,162.865021 
	C170.653107,163.426956 172.353195,163.949188 173.589340,165.011337 
	C173.871857,165.254089 172.847641,167.759109 171.874619,168.474075 
	C171.165863,168.994843 168.611069,168.508316 168.510178,168.083527 
	C168.129807,166.481918 168.416443,164.721924 168.787354,162.865021 
z"/>
<path fill="#F0EBE6" opacity="1.000000" stroke="none" 
	d="
M191.225311,165.199554 
	C189.275085,165.142166 187.508392,164.974167 185.993378,164.267044 
	C185.670364,164.116257 185.843781,161.458054 186.534195,160.929977 
	C187.488159,160.200317 189.983856,159.806229 190.340973,160.312073 
	C191.189331,161.513702 191.168381,163.329071 191.225311,165.199554 
z"/>
<path fill="#F0EBE6" opacity="1.000000" stroke="none" 
	d="
M178.293762,176.039032 
	C177.213486,177.651031 176.107315,179.038345 174.684677,179.907837 
	C174.366058,180.102600 172.411407,178.617813 172.167633,177.661987 
	C171.915314,176.672653 172.882721,174.381439 173.221436,174.399963 
	C174.882889,174.490814 176.512634,175.161484 178.293762,176.039032 
z"/>
</svg>